<svg width="32" height="32" viewBox="0 0 32 32" fill="none" xmlns="http://www.w3.org/2000/svg">
<path d="M16 15.5897C14.7167 15.5897 13.6181 15.1328 12.7043 14.219C11.7903 13.305 11.3333 12.2063 11.3333 10.923C11.3333 9.63968 11.7903 8.54113 12.7043 7.62735C13.6181 6.71335 14.7167 6.25635 16 6.25635C17.2833 6.25635 18.3819 6.71335 19.2957 7.62735C20.2097 8.54113 20.6667 9.63968 20.6667 10.923C20.6667 12.2063 20.2097 13.305 19.2957 14.219C18.3819 15.1328 17.2833 15.5897 16 15.5897ZM6 23.718V22.7793C6 22.1265 6.17733 21.5218 6.532 20.9653C6.88667 20.4089 7.36067 19.9811 7.954 19.682C9.27178 19.036 10.6012 18.5515 11.9423 18.2283C13.2834 17.9052 14.636 17.7437 16 17.7437C17.364 17.7437 18.7166 17.9052 20.0577 18.2283C21.3988 18.5515 22.7282 19.036 24.046 19.682C24.6393 19.9811 25.1133 20.4089 25.468 20.9653C25.8227 21.5218 26 22.1265 26 22.7793V23.718C26 24.2802 25.803 24.7585 25.409 25.1527C25.015 25.5467 24.5368 25.7437 23.9743 25.7437H8.02567C7.46322 25.7437 6.985 25.5467 6.591 25.1527C6.197 24.7585 6 24.2802 6 23.718ZM8 23.7437H24V22.7793C24 22.5093 23.9218 22.2593 23.7653 22.0293C23.6089 21.7996 23.3966 21.612 23.1283 21.4667C21.9794 20.9009 20.8081 20.4722 19.6143 20.1807C18.4203 19.8893 17.2156 19.7437 16 19.7437C14.7844 19.7437 13.5797 19.8893 12.3857 20.1807C11.1919 20.4722 10.0206 20.9009 8.87167 21.4667C8.60344 21.612 8.39111 21.7996 8.23467 22.0293C8.07822 22.2593 8 22.5093 8 22.7793V23.7437ZM16 13.5897C16.7333 13.5897 17.3611 13.3286 17.8833 12.8063C18.4056 12.2841 18.6667 11.6563 18.6667 10.923C18.6667 10.1897 18.4056 9.5619 17.8833 9.03968C17.3611 8.51746 16.7333 8.25635 16 8.25635C15.2667 8.25635 14.6389 8.51746 14.1167 9.03968C13.5944 9.5619 13.3333 10.1897 13.3333 10.923C13.3333 11.6563 13.5944 12.2841 14.1167 12.8063C14.6389 13.3286 15.2667 13.5897 16 13.5897Z" fill="#BABABA"/>
</svg>
