<svg width="20" height="23" viewBox="0 0 20 23" fill="none" xmlns="http://www.w3.org/2000/svg">
<path d="M2 20.3333H6.46167V13.6153C6.46167 13.274 6.57711 12.9878 6.808 12.7567C7.03911 12.5258 7.32533 12.4103 7.66667 12.4103H12.3333C12.6747 12.4103 12.9609 12.5258 13.192 12.7567C13.4229 12.9878 13.5383 13.274 13.5383 13.6153V20.3333H18V8.53834C18 8.47012 17.985 8.40823 17.955 8.35267C17.9252 8.29712 17.8847 8.2479 17.8333 8.20501L10.2437 2.50001C10.1752 2.44023 10.094 2.41034 10 2.41034C9.906 2.41034 9.82478 2.44023 9.75633 2.50001L2.16667 8.20501C2.11533 8.2479 2.07478 8.29712 2.045 8.35267C2.015 8.40823 2 8.47012 2 8.53834V20.3333ZM0 20.3333V8.53834C0 8.15679 0.0853331 7.79534 0.256 7.45401C0.426889 7.11245 0.662889 6.83123 0.964 6.61034L8.554 0.89234C8.97511 0.571007 9.45644 0.410339 9.998 0.410339C10.5396 0.410339 11.0222 0.571007 11.446 0.89234L19.036 6.61034C19.3371 6.83123 19.5731 7.11245 19.744 7.45401C19.9147 7.79534 20 8.15679 20 8.53834V20.3333C20 20.8787 19.803 21.3483 19.409 21.7423C19.015 22.1363 18.5453 22.3333 18 22.3333H12.7437C12.4021 22.3333 12.1159 22.2178 11.885 21.9867C11.6539 21.7558 11.5383 21.4696 11.5383 21.128V14.4103H8.46167V21.128C8.46167 21.4696 8.34611 21.7558 8.115 21.9867C7.88411 22.2178 7.59789 22.3333 7.25633 22.3333H2C1.45467 22.3333 0.985 22.1363 0.591 21.7423C0.197 21.3483 0 20.8787 0 20.3333Z" fill="#BABABA"/>
</svg>
