<svg width="28" height="22" viewBox="0 0 28 22" fill="none" xmlns="http://www.w3.org/2000/svg">
<path d="M14 13.5333L16 15.0666C16.2445 15.2666 16.5111 15.2722 16.8 15.0833C17.0889 14.8944 17.1778 14.6444 17.0667 14.3333L16.2667 11.8L18.5 10.0666C18.7445 9.86665 18.8111 9.61665 18.7 9.31665C18.5889 9.01665 18.3778 8.86665 18.0667 8.86665H15.4667L14.6334 6.29998C14.5222 5.98887 14.3111 5.83331 14 5.83331C13.6889 5.83331 13.4778 5.98887 13.3667 6.29998L12.5334 8.86665H9.90002C9.58891 8.86665 9.38335 9.01665 9.28335 9.31665C9.18335 9.61665 9.25558 9.86665 9.50002 10.0666L11.6667 11.8L10.8667 14.3666C10.7556 14.6778 10.8334 14.9278 11.1 15.1166C11.3667 15.3055 11.6334 15.3 11.9 15.1L14 13.5333ZM3.33335 21.6666C2.60002 21.6666 1.97224 21.4055 1.45002 20.8833C0.927798 20.3611 0.666687 19.7333 0.666687 19V14.5C0.666687 14.2555 0.744465 14.0444 0.90002 13.8666C1.05558 13.6889 1.25558 13.5778 1.50002 13.5333C2.03335 13.3555 2.47224 13.0333 2.81669 12.5666C3.16113 12.1 3.33335 11.5778 3.33335 11C3.33335 10.4222 3.16113 9.89998 2.81669 9.43331C2.47224 8.96665 2.03335 8.64442 1.50002 8.46665C1.25558 8.4222 1.05558 8.31109 0.90002 8.13331C0.744465 7.95553 0.666687 7.74442 0.666687 7.49998V2.99998C0.666687 2.26665 0.927798 1.63887 1.45002 1.11665C1.97224 0.594424 2.60002 0.333313 3.33335 0.333313H24.6667C25.4 0.333313 26.0278 0.594424 26.55 1.11665C27.0722 1.63887 27.3334 2.26665 27.3334 2.99998V7.49998C27.3334 7.74442 27.2556 7.95553 27.1 8.13331C26.9445 8.31109 26.7445 8.4222 26.5 8.46665C25.9667 8.64442 25.5278 8.96665 25.1834 9.43331C24.8389 9.89998 24.6667 10.4222 24.6667 11C24.6667 11.5778 24.8389 12.1 25.1834 12.5666C25.5278 13.0333 25.9667 13.3555 26.5 13.5333C26.7445 13.5778 26.9445 13.6889 27.1 13.8666C27.2556 14.0444 27.3334 14.2555 27.3334 14.5V19C27.3334 19.7333 27.0722 20.3611 26.55 20.8833C26.0278 21.4055 25.4 21.6666 24.6667 21.6666H3.33335ZM3.33335 19H24.6667V15.6C23.8445 15.1111 23.1945 14.4611 22.7167 13.65C22.2389 12.8389 22 11.9555 22 11C22 10.0444 22.2389 9.16109 22.7167 8.34998C23.1945 7.53887 23.8445 6.88887 24.6667 6.39998V2.99998H3.33335V6.39998C4.15558 6.88887 4.80558 7.53887 5.28335 8.34998C5.76113 9.16109 6.00002 10.0444 6.00002 11C6.00002 11.9555 5.76113 12.8389 5.28335 13.65C4.80558 14.4611 4.15558 15.1111 3.33335 15.6V19Z" fill="white"/>
</svg>
