<svg width="81" height="105" viewBox="0 0 81 105" fill="none" xmlns="http://www.w3.org/2000/svg">
<g id="LogoMark">
<g id="Subtract">
<path d="M6.39472 62.3512C2.34734 56.0472 0 48.5477 0 40.4999V104.873H6.39472V62.3512Z" fill="#EF6962"/>
<path d="M40.4999 80.9998C62.8673 80.9998 80.9998 62.8673 80.9998 40.4999C80.9998 18.1324 62.8673 0 40.4999 0C18.1324 0 0 18.1324 0 40.4999C0 48.5477 2.34734 56.0472 6.39472 62.3512V40.4999C6.39472 21.6641 21.6641 6.39472 40.4999 6.39472C59.3356 6.39472 74.605 21.6641 74.605 40.4999C74.605 59.3356 59.3356 74.605 40.4999 74.605C37.6324 74.605 34.6345 73.9926 31.9736 73.3261V80.1471C34.6568 80.7069 37.6505 80.9998 40.4999 80.9998Z" fill="#EF6962"/>
</g>
<g id="Subtract_2">
<path d="M40.5 70.7684C57.2168 70.7684 70.7685 57.2168 70.7685 40.5C70.7685 23.7832 57.2168 10.2316 40.5 10.2316C23.7832 10.2316 10.2316 24.2095 10.2316 40.9263C10.2316 48.1885 12.7891 54.4271 17.0526 59.643V40.5C17.0526 27.5504 27.5504 17.0526 40.5 17.0526C53.4496 17.0526 63.9474 27.5504 63.9474 40.5C63.9474 53.4496 53.4496 63.9474 40.5 63.9474C37.5727 63.9474 34.5575 63.2221 31.9737 62.2421V69.4895C34.6151 70.2423 37.6171 70.7684 40.5 70.7684Z" fill="#EF6962"/>
<path d="M10.2316 104.874H17.0526V59.643C12.7891 54.4271 10.2316 48.1885 10.2316 40.9263V104.874Z" fill="#EF6962"/>
</g>
<g id="Subtract_3">
<path fill-rule="evenodd" clip-rule="evenodd" d="M59.2579 40.9262C59.2579 51.5214 51.0952 59.6841 40.5 59.6841C37.4373 59.6841 34.5422 59.2553 31.9737 57.9789V50.3052C34.1919 52.4184 37.1945 53.2894 40.5 53.2894C47.328 53.2894 52.8632 47.3279 52.8632 40.4999C52.8632 33.6719 47.328 28.1367 40.5 28.1367C33.672 28.1367 28.1369 33.6719 28.1369 40.4999V55.1697C23.9655 51.6506 21.3158 46.811 21.3158 40.9262C21.3158 30.3311 29.9049 21.742 40.5 21.742C51.0952 21.742 59.2579 30.3311 59.2579 40.9262Z" fill="#EF6962"/>
<path d="M21.3158 104.874H28.1369V55.1697C23.9655 51.6506 21.3158 46.811 21.3158 40.9262V104.874Z" fill="#EF6962"/>
</g>
</g>
</svg>
