<svg width="10" height="16" viewBox="0 0 10 16" fill="none" xmlns="http://www.w3.org/2000/svg">
<path d="M1.55463 8C1.55463 7.40619 1.46084 6.84405 1.27325 6.31358C1.08566 5.78288 0.826293 5.29289 0.495151 4.8436C0.319256 4.59632 0.236533 4.3251 0.246983 4.02995C0.257432 3.73504 0.378469 3.47837 0.610094 3.25995C0.841719 3.04152 1.10867 2.9404 1.41096 2.95659C1.71349 2.97301 1.96041 3.10475 2.15173 3.3518C2.6742 3.99629 3.07848 4.71234 3.36459 5.49994C3.6507 6.28778 3.79376 7.12113 3.79376 8C3.79376 8.86456 3.6507 9.69428 3.36459 10.4892C3.07848 11.284 2.6742 12.0037 2.15173 12.6482C1.97559 12.8953 1.72866 13.0234 1.41096 13.0325C1.09325 13.0414 0.818706 12.9368 0.587329 12.7186C0.355704 12.5002 0.2384 12.247 0.235414 11.9591C0.232678 11.6713 0.319256 11.4037 0.495151 11.1564C0.826293 10.7071 1.08566 10.2171 1.27325 9.68642C1.46084 9.15595 1.55463 8.59381 1.55463 8ZM7.52564 8C7.52564 6.63196 7.29028 5.34474 6.81957 4.13835C6.3486 2.93196 5.68644 1.84592 4.83309 0.880243C4.61664 0.632958 4.49983 0.363151 4.48267 0.0708199C4.4655 -0.221511 4.57273 -0.476891 4.80435 -0.695318C5.03573 -0.91351 5.31176 -1.01451 5.63246 -0.998323C5.9529 -0.982134 6.22122 -0.850398 6.43742 -0.603114C7.48235 0.557294 8.29813 1.86797 8.88479 3.32893C9.47144 4.78988 9.76476 6.3469 9.76476 8C9.76476 9.6531 9.47144 11.2065 8.88479 12.6602C8.29813 14.1138 7.48235 15.4282 6.43742 16.6031C6.22122 16.8504 5.95676 16.9821 5.64402 16.9983C5.33104 17.0145 5.05874 16.9135 4.82712 16.6953C4.59549 16.4769 4.48453 16.2215 4.49423 15.9292C4.50369 15.6369 4.61664 15.367 4.83309 15.1198C5.68644 14.1398 6.3486 13.0466 6.81957 11.8402C7.29028 10.6336 7.52564 9.3535 7.52564 8Z" fill="#EF6962"/>
</svg>
