<svg width="26" height="27" viewBox="0 0 26 27" fill="none" xmlns="http://www.w3.org/2000/svg">
<path d="M2.48731 24.2564V12.1537H2.35898C1.79654 12.1537 1.31831 11.9567 0.924313 11.5627C0.530313 11.1687 0.333313 10.6906 0.333313 10.1284V7.23069C0.333313 6.66847 0.530313 6.19036 0.924313 5.79636C1.31831 5.40236 1.79654 5.20536 2.35898 5.20536H7.22831C7.04031 4.98825 6.91254 4.7437 6.84498 4.4717C6.77742 4.19992 6.74365 3.91447 6.74365 3.61536C6.74365 2.61825 7.09265 1.77069 7.79065 1.07269C8.48865 0.374695 9.3362 0.0256958 10.3333 0.0256958C10.8444 0.0256958 11.318 0.132917 11.754 0.347361C12.1898 0.562028 12.5794 0.848806 12.923 1.20769C13.2665 0.835028 13.6563 0.544917 14.0923 0.337362C14.5281 0.129584 15.0015 0.0256958 15.5126 0.0256958C16.51 0.0256958 17.3576 0.374695 18.0556 1.07269C18.7536 1.77069 19.1026 2.61825 19.1026 3.61536C19.1026 3.91114 19.0654 4.19236 18.991 4.45903C18.9165 4.7257 18.7922 4.97447 18.618 5.20536H23.641C24.2034 5.20536 24.6816 5.40236 25.0756 5.79636C25.4696 6.19036 25.6666 6.66847 25.6666 7.23069V10.1284C25.6666 10.6906 25.4696 11.1687 25.0756 11.5627C24.6816 11.9567 24.2034 12.1537 23.641 12.1537H23.5126V24.2564C23.5126 24.9192 23.2766 25.4867 22.8046 25.9587C22.3326 26.4307 21.7653 26.6667 21.1026 26.6667H4.89731C4.23465 26.6667 3.66731 26.4307 3.19531 25.9587C2.72331 25.4867 2.48731 24.9192 2.48731 24.2564ZM15.5126 2.0257C15.0622 2.0257 14.6846 2.17803 14.38 2.48269C14.0753 2.78736 13.923 3.16492 13.923 3.61536C13.923 4.06581 14.0753 4.44336 14.38 4.74803C14.6846 5.05292 15.0622 5.20536 15.5126 5.20536C15.9631 5.20536 16.3408 5.05292 16.6456 4.74803C16.9503 4.44336 17.1026 4.06581 17.1026 3.61536C17.1026 3.16492 16.9503 2.78736 16.6456 2.48269C16.3408 2.17803 15.9631 2.0257 15.5126 2.0257ZM8.74365 3.61536C8.74365 4.06581 8.89598 4.44336 9.20065 4.74803C9.50531 5.05292 9.88287 5.20536 10.3333 5.20536C10.7838 5.20536 11.1613 5.05292 11.466 4.74803C11.7706 4.44336 11.923 4.06581 11.923 3.61536C11.923 3.16492 11.7706 2.78736 11.466 2.48269C11.1613 2.17803 10.7838 2.0257 10.3333 2.0257C9.88287 2.0257 9.50531 2.17803 9.20065 2.48269C8.89598 2.78736 8.74365 3.16492 8.74365 3.61536ZM2.33331 7.20503V10.154H12V7.20503H2.33331ZM12 24.6667V12.1537H4.48698V24.2564C4.48698 24.3761 4.52554 24.4745 4.60265 24.5514C4.67954 24.6282 4.77776 24.6667 4.89731 24.6667H12ZM14 24.6667H21.1026C21.2222 24.6667 21.3204 24.6282 21.3973 24.5514C21.4744 24.4745 21.513 24.3761 21.513 24.2564V12.1537H14V24.6667ZM23.6666 10.154V7.20503H14V10.154H23.6666Z" fill="white"/>
</svg>
