<svg width="30" height="28" viewBox="0 0 30 28" fill="none" xmlns="http://www.w3.org/2000/svg">
<path d="M14.8333 24.6667C14.9222 24.6667 15.0111 24.6445 15.1 24.6C15.1889 24.5556 15.2555 24.5111 15.3 24.4667L26.2333 13.5334C26.5 13.2667 26.6944 12.9667 26.8167 12.6334C26.9389 12.3 27 11.9667 27 11.6334C27 11.2778 26.9389 10.9389 26.8167 10.6167C26.6944 10.2945 26.5 10.0111 26.2333 9.76669L20.5667 4.10002C20.3222 3.83335 20.0389 3.63891 19.7167 3.51669C19.3944 3.39446 19.0555 3.33335 18.7 3.33335C18.3667 3.33335 18.0333 3.39446 17.7 3.51669C17.3667 3.63891 17.0667 3.83335 16.8 4.10002L16.4333 4.46669L18.9 6.96669C19.2333 7.2778 19.4778 7.63335 19.6333 8.03335C19.7889 8.43335 19.8667 8.85558 19.8667 9.30002C19.8667 10.2334 19.55 11.0167 18.9167 11.65C18.2833 12.2834 17.5 12.6 16.5667 12.6C16.1222 12.6 15.6944 12.5222 15.2833 12.3667C14.8722 12.2111 14.5111 11.9778 14.2 11.6667L11.7 9.20002L5.86666 15.0334C5.79999 15.1 5.74999 15.1722 5.71666 15.25C5.68333 15.3278 5.66666 15.4111 5.66666 15.5C5.66666 15.6778 5.73333 15.8389 5.86666 15.9834C5.99999 16.1278 6.15555 16.2 6.33333 16.2C6.42221 16.2 6.5111 16.1778 6.59999 16.1334C6.68888 16.0889 6.75555 16.0445 6.79999 16L10.4 12.4C10.6444 12.1556 10.95 12.0278 11.3167 12.0167C11.6833 12.0056 12 12.1334 12.2667 12.4C12.5111 12.6445 12.6333 12.9556 12.6333 13.3334C12.6333 13.7111 12.5111 14.0222 12.2667 14.2667L8.69999 17.8667C8.63333 17.9334 8.58333 18.0056 8.54999 18.0834C8.51666 18.1611 8.49999 18.2445 8.49999 18.3334C8.49999 18.5111 8.56666 18.6667 8.69999 18.8C8.83333 18.9334 8.98888 19 9.16666 19C9.25555 19 9.34444 18.9778 9.43333 18.9334C9.52221 18.8889 9.58888 18.8445 9.63333 18.8L13.2333 15.2334C13.4778 14.9889 13.7833 14.8611 14.15 14.85C14.5167 14.8389 14.8333 14.9667 15.1 15.2334C15.3444 15.4778 15.4667 15.7889 15.4667 16.1667C15.4667 16.5445 15.3444 16.8556 15.1 17.1L11.5333 20.7C11.4667 20.7445 11.4167 20.8111 11.3833 20.9C11.35 20.9889 11.3333 21.0778 11.3333 21.1667C11.3333 21.3445 11.4 21.5 11.5333 21.6334C11.6667 21.7667 11.8222 21.8334 12 21.8334C12.0889 21.8334 12.1722 21.8167 12.25 21.7834C12.3278 21.75 12.4 21.7 12.4667 21.6334L16.0667 18.0667C16.3111 17.8222 16.6167 17.6945 16.9833 17.6834C17.35 17.6722 17.6667 17.8 17.9333 18.0667C18.1778 18.3111 18.3 18.6222 18.3 19C18.3 19.3778 18.1778 19.6889 17.9333 19.9334L14.3333 23.5334C14.2667 23.6 14.2167 23.6722 14.1833 23.75C14.15 23.8278 14.1333 23.9111 14.1333 24C14.1333 24.1778 14.2055 24.3334 14.35 24.4667C14.4944 24.6 14.6555 24.6667 14.8333 24.6667ZM14.8 27.3334C13.9778 27.3334 13.25 27.0611 12.6167 26.5167C11.9833 25.9722 11.6111 25.2889 11.5 24.4667C10.7444 24.3556 10.1111 24.0445 9.59999 23.5334C9.08888 23.0222 8.77777 22.3889 8.66666 21.6334C7.9111 21.5222 7.28333 21.2056 6.78333 20.6834C6.28333 20.1611 5.97777 19.5334 5.86666 18.8C5.02221 18.6889 4.33333 18.3222 3.79999 17.7C3.26666 17.0778 2.99999 16.3445 2.99999 15.5C2.99999 15.0556 3.08333 14.6278 3.24999 14.2167C3.41666 13.8056 3.65555 13.4445 3.96666 13.1334L9.79999 7.30002C10.3111 6.78891 10.9389 6.53335 11.6833 6.53335C12.4278 6.53335 13.0555 6.78891 13.5667 7.30002L16.0667 9.80002C16.1111 9.86669 16.1778 9.91669 16.2667 9.95002C16.3555 9.98335 16.4444 10 16.5333 10C16.7333 10 16.9 9.93891 17.0333 9.81669C17.1667 9.69446 17.2333 9.53335 17.2333 9.33335C17.2333 9.24446 17.2167 9.15558 17.1833 9.06669C17.15 8.9778 17.1 8.91113 17.0333 8.86669L12.2667 4.10002C12.0222 3.83335 11.7389 3.63891 11.4167 3.51669C11.0944 3.39446 10.7555 3.33335 10.4 3.33335C10.0667 3.33335 9.73333 3.39446 9.39999 3.51669C9.06666 3.63891 8.76666 3.83335 8.49999 4.10002L3.79999 8.83335C3.48888 9.14446 3.26666 9.51113 3.13333 9.93335C2.99999 10.3556 2.96666 10.7778 3.03333 11.2C3.09999 11.5778 3.02221 11.9111 2.79999 12.2C2.57777 12.4889 2.27777 12.6556 1.89999 12.7C1.52221 12.7445 1.18888 12.6611 0.899992 12.45C0.611103 12.2389 0.444437 11.9445 0.399992 11.5667C0.266659 10.7222 0.32777 9.89446 0.583326 9.08335C0.838881 8.27224 1.27777 7.55558 1.89999 6.93335L6.59999 2.23335C7.13333 1.72224 7.72777 1.33335 8.38333 1.06669C9.03888 0.80002 9.7111 0.666687 10.4 0.666687C11.0889 0.666687 11.7611 0.80002 12.4167 1.06669C13.0722 1.33335 13.6555 1.72224 14.1667 2.23335L14.5333 2.60002L14.9 2.23335C15.4333 1.72224 16.0278 1.33335 16.6833 1.06669C17.3389 0.80002 18.0111 0.666687 18.7 0.666687C19.3889 0.666687 20.0611 0.80002 20.7167 1.06669C21.3722 1.33335 21.9555 1.72224 22.4667 2.23335L28.1 7.86669C28.6111 8.3778 29 8.96669 29.2667 9.63335C29.5333 10.3 29.6667 10.9778 29.6667 11.6667C29.6667 12.3556 29.5333 13.0278 29.2667 13.6834C29 14.3389 28.6111 14.9222 28.1 15.4334L17.1667 26.3334C16.8555 26.6445 16.4944 26.8889 16.0833 27.0667C15.6722 27.2445 15.2444 27.3334 14.8 27.3334Z" fill="white"/>
</svg>
