<svg width="38" height="51" viewBox="0 0 38 51" fill="none" xmlns="http://www.w3.org/2000/svg">
<path d="M18.6667 32C16.4444 32 14.5556 31.2222 13 29.6667C11.4444 28.1111 10.6667 26.2222 10.6667 24V8C10.6667 5.77778 11.4444 3.88889 13 2.33333C14.5556 0.777778 16.4444 0 18.6667 0C20.8889 0 22.7778 0.777778 24.3333 2.33333C25.8889 3.88889 26.6667 5.77778 26.6667 8V24C26.6667 26.2222 25.8889 28.1111 24.3333 29.6667C22.7778 31.2222 20.8889 32 18.6667 32ZM16 50.6667V42.4667C11.3778 41.8444 7.55555 39.7778 4.53333 36.2667C1.51111 32.7556 0 28.6667 0 24H5.33333C5.33333 27.6889 6.63333 30.8333 9.23333 33.4333C11.8333 36.0333 14.9778 37.3333 18.6667 37.3333C22.3556 37.3333 25.5 36.0333 28.1 33.4333C30.7 30.8333 32 27.6889 32 24H37.3333C37.3333 28.6667 35.8222 32.7556 32.8 36.2667C29.7778 39.7778 25.9556 41.8444 21.3333 42.4667V50.6667H16Z" fill="white"/>
</svg>
