<svg width="315" height="98" viewBox="0 0 315 98" fill="none" xmlns="http://www.w3.org/2000/svg">
<path fill-rule="evenodd" clip-rule="evenodd" d="M296.11 76.1665C293.022 76.3261 288.947 76.2429 287.054 75.9816C285.161 75.7203 281.955 74.6612 279.93 73.6281C277.905 72.5949 275.066 70.3454 273.622 68.6291C271.461 66.0613 270.997 64.5034 271 59.8352C271.003 55.9062 271.626 53.142 273.026 50.8446C274.356 48.6631 277.009 46.6087 280.773 44.8446C286.001 42.3942 291.241 41.2126 297.345 41.2126C309.193 41.2633 310.193 42.2633 309.662 38.9888C309.37 37.1878 308.538 34.479 307.813 32.9692C307.089 31.4594 304.696 29.174 302.496 27.8905C298.88 25.7809 297.584 25.5986 288.996 25.9916C283.771 26.2308 278.709 26.7526 277.746 27.1512C276.347 27.7308 275.996 27.3634 275.996 25.3159C275.996 23.2185 276.674 22.5586 279.746 21.664C281.809 21.0634 285.759 20.3146 288.524 20C291.29 19.6854 296.171 19.9717 299.372 20.6362C303.505 21.4941 306.275 22.8223 308.925 25.2167C311.05 27.1362 313.162 30.27 313.827 32.4914C314.485 34.6883 314.995 42.6808 314.993 50.778C314.989 63.4521 314.748 65.5563 312.966 68.48C311.716 70.5297 309.181 72.5774 306.333 73.8372C303.798 74.9587 299.197 76.0069 296.11 76.1665ZM293.38 71.5596C295.516 71.6159 299.031 71.1327 301.189 70.4859C303.348 69.8391 306.213 68.0046 307.556 66.4092C309.687 63.8766 309.996 62.519 309.996 55.7102C309.996 50.8514 310.241 48.6619 309.741 48.1619C309.241 47.6619 308.049 47.5225 306.871 47.2869C305.153 46.9432 303.741 46.6619 297.553 46.6619C291.365 46.6619 289.061 47.3443 286.253 48.1784C283.004 49.1431 280.21 50.8082 278.571 52.7551C277.119 54.4811 275.996 57.0616 275.996 58.6736C275.996 60.2456 276.426 62.6625 276.952 64.0445C277.477 65.4266 279.063 67.315 280.477 68.2411C281.89 69.1671 284.498 70.2696 286.271 70.691C288.045 71.1124 291.244 71.5033 293.38 71.5596Z" fill="white"/>
<path fill-rule="evenodd" clip-rule="evenodd" d="M251.756 76C251.756 68.1087 251.756 76.0001 251.756 38.0001C251.756 5.34058e-05 252 13.5001 252 5.47607e-05C253.367 5.47607e-05 252 -4.48311e-05 257 2.46007e-05C257 4.99997 257 20.7811 257 38.0001C257 62.1443 257 72 257 76C255.744 76 253.579 76 251.756 76Z" fill="white"/>
<path fill-rule="evenodd" clip-rule="evenodd" d="M214.629 76.529C210.574 76.7454 205.787 76.5454 203.991 76.0846C202.196 75.6238 199.04 74.1302 196.978 72.7656C194.794 71.3205 192.002 68.0329 190.29 64.8923C187.855 60.4227 187.283 58.0456 186.946 51.0001C186.722 46.3251 187.027 40.6931 187.623 38.4847C188.219 36.2762 190.017 32.4036 191.618 29.8788C193.634 26.6996 196.024 24.5522 199.392 22.8942C203.294 20.9735 205.838 20.5001 212.256 20.5001C218.674 20.5001 221.217 20.9735 225.119 22.8942C228.487 24.5522 230.878 26.6996 232.894 29.8788C234.495 32.4036 236.293 36.2762 236.889 38.4847C237.485 40.6931 237.789 46.3545 237.565 51.0654C237.22 58.3254 236.692 60.4589 234.101 65.0654C232.047 68.7169 229.56 71.4246 226.523 73.3179C222.891 75.5813 220.551 76.2131 214.629 76.529ZM212.256 71.9123C214.456 71.9123 217.994 71.2926 220.118 70.5352C222.243 69.7779 225.216 67.9754 226.725 66.5298C228.234 65.0842 230.083 62.0388 230.834 59.7624C231.585 57.4859 232.2 52.4179 232.2 48.5001C232.2 44.5822 231.585 39.5142 230.834 37.2378C230.083 34.9613 228.234 31.916 226.725 30.4703C225.216 29.0247 222.243 27.2222 220.118 26.4649C217.994 25.7075 214.456 25.0878 212.256 25.0878C210.056 25.0878 206.518 25.7075 204.393 26.4649C202.269 27.2222 199.296 29.0247 197.787 30.4703C196.278 31.916 194.416 34.989 193.65 37.2994C192.883 39.6098 192.256 44.6501 192.256 48.5001C192.256 52.3501 192.883 57.3904 193.65 59.7007C194.416 62.0111 196.278 65.0842 197.787 66.5298C199.296 67.9754 202.269 69.7779 204.393 70.5352C206.518 71.2926 210.056 71.9123 212.256 71.9123Z" fill="white"/>
<path fill-rule="evenodd" clip-rule="evenodd" d="M143.756 97.219C142.381 97.4706 140.243 97.493 139.006 97.2688C138.28 97.1371 138.5 97 137 97C137 96.5 137 95.2861 137 94.5C137 93.6037 137 93 137 92C138 92 138.928 92.4546 140.759 92.4546C143.905 92.4546 145.365 91.8166 147.573 89.4773C149.119 87.8398 151.421 84.1866 152.689 81.3591C154.995 76.2181 154.995 76.2181 147.252 56.3591C142.993 45.4366 138.218 33.0126 136.642 28.7501C134.926 24.1082 135.5 26 134 21C134.5 21 135.471 21.0001 136.605 21.0001C137.349 21.0001 139.5 21 140 21C140.5 23 141.927 27.5326 148.213 44.0001C153.041 56.6501 157.332 67.0001 157.749 67.0001C158.166 67.0001 162.276 56.6534 166.881 44.0075C172.646 28.1809 174.5 23.5 175 21C176 21.0075 177.248 21.0097 178.073 21.0075C179.638 21.0034 180.5 21 181 21C181 22 180.418 22.5343 180.198 23.2501C179.817 24.4876 175.491 36.3001 170.584 49.5001C165.678 62.7001 160.527 76.5187 159.138 80.2081C157.749 83.8976 155.631 88.3732 154.431 90.1541C153.231 91.9349 150.9 94.15 149.252 95.0767C147.604 96.0033 145.131 96.9673 143.756 97.219Z" fill="white"/>
<path fill-rule="evenodd" clip-rule="evenodd" d="M106.11 76.1665C103.022 76.3261 98.9473 76.2429 97.0542 75.9816C95.161 75.7203 91.9551 74.6612 89.93 73.6281C87.9048 72.5949 85.0663 70.3454 83.6221 68.6291C81.4615 66.0613 80.997 64.5034 81 59.8352C81.0026 55.9062 81.6256 53.142 83.0263 50.8446C84.3563 48.6631 87.0086 46.6087 90.7725 44.8446C96.0006 42.3942 101.241 41.2126 107.345 41.2126C119.193 41.2633 120.193 42.2633 119.662 38.9888C119.37 37.1878 118.538 34.479 117.813 32.9692C117.089 31.4594 114.696 29.174 112.496 27.8905C108.88 25.7809 107.584 25.5986 98.9963 25.9916C93.7713 26.2308 88.7088 26.7526 87.7463 27.1512C86.3466 27.7308 85.9963 27.3634 85.9963 25.3159C85.9963 23.2185 86.6739 22.5586 89.7463 21.664C91.8088 21.0634 95.7589 20.3146 98.5243 20C101.29 19.6854 106.171 19.9717 109.372 20.6362C113.505 21.4941 116.275 22.8223 118.925 25.2167C121.05 27.1362 123.162 30.27 123.827 32.4914C124.485 34.6883 124.995 42.6808 124.993 50.778C124.989 63.4521 124.748 65.5563 122.966 68.48C121.716 70.5297 119.181 72.5774 116.333 73.8372C113.798 74.9587 109.197 76.0069 106.11 76.1665ZM103.38 71.5596C105.516 71.6159 109.031 71.1327 111.189 70.4859C113.348 69.8391 116.213 68.0046 117.556 66.4092C119.687 63.8766 119.996 62.519 119.996 55.7102C119.996 50.8514 120.241 48.6619 119.741 48.1619C119.241 47.6619 118.049 47.5225 116.871 47.2869C115.153 46.9432 113.741 46.6619 107.553 46.6619C101.365 46.6619 99.0614 47.3443 96.2529 48.1784C93.0042 49.1431 90.2095 50.8082 88.5713 52.7551C87.119 54.4811 85.9963 57.0616 85.9963 58.6736C85.9963 60.2456 86.4262 62.6625 86.9516 64.0445C87.4771 65.4266 89.0634 67.315 90.4767 68.2411C91.89 69.1671 94.4976 70.2696 96.2713 70.691C98.0451 71.1124 101.244 71.5033 103.38 71.5596Z" fill="white"/>
<path fill-rule="evenodd" clip-rule="evenodd" d="M59.7557 76C59.7557 68.1087 59.7557 76.0001 59.7557 38.0001C59.7557 5.34058e-05 60 13.5001 60 5.47607e-05C61.3672 5.47607e-05 60 -4.48311e-05 65 2.46007e-05C65 4.99997 65 20.7811 65 38.0001C65 62.1443 65 72 65 76C63.7443 76 61.5789 76 59.7557 76Z" fill="white"/>
<path fill-rule="evenodd" clip-rule="evenodd" d="M5.00001 97.0001C5.00001 97.0001 2.00001 97.0001 6.31809e-06 97.0001C3.99351e-06 92.5001 2.20537e-06 85.0001 2.20537e-06 71.5001C1.19209e-07 57.5001 0 43.5001 0 39.5001C1.52588e-05 30.5001 1.77174 29.3993 2.50002 28.0001C3.22829 26.6009 4.91127 25.2716 6.27268 24.0001C7.63408 22.7286 9.37175 21.7911 12 21.0001C14.6283 20.2091 18.7204 20.0001 20.7332 20.0001C24.7343 20.0001 26.7 20.6852 29.5199 21.5227C32.499 22.4073 35.9946 24.3928 37.8633 26.2614C39.6322 28.0303 41.8888 31.3072 42.8779 33.5433C43.8671 35.7794 45.5 42.772 45.5 46C45.5 49.228 45.5 54 45 58.5C44.1194 61.5291 42.2734 66.1577 41 68.0481C39.7267 69.9385 36.2075 72.5881 33.7986 73.9179C30.391 75.7991 27.5099 76.9361 22 77.0001C18.1051 77.0452 12.8933 76.1203 10.0058 75.6562C5.00001 73.9179 5.00001 74.3144 5.00001 77.0001C5.00001 78.5001 5.00001 86.0001 5.00001 86.0001C5.00001 96.9742 5.00001 94.5001 5.00001 97.0001ZM20.7332 71.2974C22.6582 71.3481 26.0558 71.2759 28.2558 70.498C30.4558 69.7202 33.4693 67.7347 34.9525 66.0858C36.4357 64.4369 38.187 61.2927 38.8443 59.0988C39.5811 56.6396 39.8462 51.7208 39.5355 46.272C39.2356 41.0127 38.3765 36.1673 37.4137 34.3054C36.5238 32.5846 34.603 30.2384 33.1452 29.0917C31.6874 27.9451 28.6456 26.5089 26.3856 25.9004C24.1255 25.2918 20.7332 24.839 17.9989 25.3802C15.6462 25.7027 12.3867 26.6567 10.7554 27.5002C9.12423 28.3438 7.10699 30.3539 6.27268 31.9673C5.09119 34.2521 4.75575 38.6624 4.75575 51.9119C4.75575 68.923 4.75575 68.923 8.50575 69.895C10.5683 70.4296 13.3808 71.0607 14.7558 71.2974C16.1308 71.534 18.8082 71.2466 20.7332 71.2974Z" fill="white"/>
</svg>
