<svg width="18" height="18" viewBox="0 0 18 18" fill="none" xmlns="http://www.w3.org/2000/svg">
<path d="M8.31252 17.0208V10.1846C8.09634 10.0518 7.92767 9.88551 7.80652 9.68567C7.68552 9.48599 7.62502 9.25744 7.62502 9.00001C7.62502 8.62509 7.76046 8.30219 8.03133 8.03132C8.30221 7.76044 8.6251 7.62501 9.00002 7.62501C9.37494 7.62501 9.69783 7.76044 9.96871 8.03132C10.2396 8.30219 10.375 8.62509 10.375 9.00001C10.375 9.25744 10.3145 9.48836 10.1935 9.69278C10.0724 9.89719 9.9037 10.0611 9.68752 10.1846V17.0208C9.68752 17.2159 9.62167 17.3793 9.48998 17.5108C9.35844 17.6425 9.19512 17.7083 9.00002 17.7083C8.80492 17.7083 8.6416 17.6425 8.51006 17.5108C8.37837 17.3793 8.31252 17.2159 8.31252 17.0208ZM3.49819 14.8227C3.3561 14.9648 3.18751 15.0329 2.99242 15.0271C2.79732 15.0211 2.63339 14.9424 2.50062 14.7908C1.81312 14.0104 1.27306 13.1308 0.880416 12.152C0.48793 11.173 0.291687 10.1223 0.291687 9.00001C0.291687 7.79658 0.520548 6.66518 0.978271 5.60582C1.43599 4.5463 2.05681 3.6246 2.84071 2.84069C3.62461 2.05679 4.54632 1.43598 5.60583 0.978256C6.66519 0.520533 7.79659 0.291672 9.00002 0.291672C10.2035 0.291672 11.3348 0.520533 12.3942 0.978256C13.4537 1.43598 14.3754 2.05679 15.1593 2.84069C15.9432 3.6246 16.564 4.5463 17.0218 5.60582C17.4795 6.66518 17.7084 7.79658 17.7084 9.00001C17.7084 10.1165 17.5121 11.1657 17.1196 12.1476C16.727 13.1294 16.1869 14.0104 15.4994 14.7908C15.3667 14.9424 15.2051 15.0235 15.0147 15.0342C14.8244 15.0447 14.6581 14.9789 14.5158 14.8367C14.3831 14.7039 14.3211 14.5385 14.33 14.3405C14.3387 14.1425 14.4095 13.9677 14.5424 13.8159C15.103 13.1685 15.5416 12.4358 15.8583 11.6178C16.175 10.7998 16.3334 9.92721 16.3334 9.00001C16.3334 6.95278 15.6229 5.21876 14.2021 3.79792C12.7813 2.37709 11.0472 1.66667 9.00002 1.66667C6.9528 1.66667 5.21877 2.37709 3.79794 3.79792C2.3771 5.21876 1.66669 6.95278 1.66669 9.00001C1.66669 9.92721 1.82359 10.7974 2.1374 11.6107C2.4512 12.4239 2.89601 13.1543 3.47183 13.802C3.6046 13.9535 3.67778 14.126 3.69138 14.3194C3.70482 14.5127 3.64042 14.6804 3.49819 14.8227ZM6.08777 12.2331C5.94569 12.3752 5.77855 12.4471 5.58635 12.449C5.39416 12.4506 5.23642 12.371 5.11313 12.2102C4.75578 11.7659 4.47398 11.2743 4.26773 10.7355C4.06148 10.1966 3.95835 9.61814 3.95835 9.00001C3.95835 7.60148 4.449 6.41157 5.43029 5.43028C6.41158 4.44898 7.60149 3.95834 9.00002 3.95834C10.3985 3.95834 11.5885 4.44898 12.5698 5.43028C13.551 6.41157 14.0417 7.60148 14.0417 9.00001C14.0417 9.61234 13.9386 10.1917 13.7323 10.7382C13.5261 11.2846 13.2443 11.7752 12.8869 12.2102C12.7636 12.3617 12.6059 12.4413 12.4137 12.449C12.2215 12.4566 12.0544 12.3893 11.9123 12.2471C11.7794 12.1143 11.7121 11.9534 11.7104 11.7642C11.7085 11.5749 11.7664 11.3998 11.8841 11.2387C12.1238 10.9214 12.3142 10.5748 12.4552 10.1988C12.5962 9.82264 12.6667 9.42305 12.6667 9.00001C12.6667 7.99167 12.3077 7.12848 11.5896 6.41042C10.8715 5.69237 10.0084 5.33334 9.00002 5.33334C7.99169 5.33334 7.12849 5.69237 6.41044 6.41042C5.69238 7.12848 5.33335 7.99167 5.33335 9.00001C5.33335 9.43252 5.40386 9.83448 5.54488 10.2059C5.68589 10.5771 5.87625 10.9214 6.11596 11.2387C6.2336 11.3998 6.2915 11.5726 6.28967 11.7571C6.28799 11.9415 6.22069 12.1002 6.08777 12.2331Z" fill="#BABABA"/>
</svg>
