<svg width="10" height="13" viewBox="0 0 10 13" fill="none" xmlns="http://www.w3.org/2000/svg">
<path d="M5.00001 8.33337C4.44445 8.33337 3.97223 8.13893 3.58334 7.75004C3.19445 7.36115 3.00001 6.88893 3.00001 6.33337V2.33337C3.00001 1.77782 3.19445 1.3056 3.58334 0.916707C3.97223 0.527818 4.44445 0.333374 5.00001 0.333374C5.55557 0.333374 6.02779 0.527818 6.41668 0.916707C6.80557 1.3056 7.00001 1.77782 7.00001 2.33337V6.33337C7.00001 6.88893 6.80557 7.36115 6.41668 7.75004C6.02779 8.13893 5.55557 8.33337 5.00001 8.33337ZM4.33334 13V10.95C3.17779 10.7945 2.22223 10.2778 1.46668 9.40004C0.711121 8.52226 0.333344 7.50004 0.333344 6.33337H1.66668C1.66668 7.2556 1.99168 8.04171 2.64168 8.69171C3.29168 9.34171 4.07779 9.66671 5.00001 9.66671C5.92223 9.66671 6.70834 9.34171 7.35834 8.69171C8.00834 8.04171 8.33334 7.2556 8.33334 6.33337H9.66668C9.66668 7.50004 9.2889 8.52226 8.53334 9.40004C7.77779 10.2778 6.82223 10.7945 5.66668 10.95V13H4.33334Z" fill="#FF5252"/>
</svg>
