<svg width="25" height="24" viewBox="0 0 25 24" fill="none" xmlns="http://www.w3.org/2000/svg">
<path d="M5.5 21C4.95 21 4.47917 20.8042 4.0875 20.4125C3.69583 20.0208 3.5 19.55 3.5 19V5C3.5 4.45 3.69583 3.97917 4.0875 3.5875C4.47917 3.19583 4.95 3 5.5 3H11.5C11.7833 3 12.0208 3.09583 12.2125 3.2875C12.4042 3.47917 12.5 3.71667 12.5 4C12.5 4.28333 12.4042 4.52083 12.2125 4.7125C12.0208 4.90417 11.7833 5 11.5 5H5.5V19H11.5C11.7833 19 12.0208 19.0958 12.2125 19.2875C12.4042 19.4792 12.5 19.7167 12.5 20C12.5 20.2833 12.4042 20.5208 12.2125 20.7125C12.0208 20.9042 11.7833 21 11.5 21H5.5ZM17.675 13H10.5C10.2167 13 9.97917 12.9042 9.7875 12.7125C9.59583 12.5208 9.5 12.2833 9.5 12C9.5 11.7167 9.59583 11.4792 9.7875 11.2875C9.97917 11.0958 10.2167 11 10.5 11H17.675L15.8 9.125C15.6167 8.94167 15.525 8.71667 15.525 8.45C15.525 8.18333 15.6167 7.95 15.8 7.75C15.9833 7.55 16.2167 7.44583 16.5 7.4375C16.7833 7.42917 17.025 7.525 17.225 7.725L20.8 11.3C21 11.5 21.1 11.7333 21.1 12C21.1 12.2667 21 12.5 20.8 12.7L17.225 16.275C17.025 16.475 16.7875 16.5708 16.5125 16.5625C16.2375 16.5542 16 16.45 15.8 16.25C15.6167 16.05 15.5292 15.8125 15.5375 15.5375C15.5458 15.2625 15.6417 15.0333 15.825 14.85L17.675 13Z" fill="white"/>
</svg>
