<svg width="24" height="28" viewBox="0 0 24 28" fill="none" xmlns="http://www.w3.org/2000/svg">
<path d="M5.30001 27.3333C4.61112 27.3333 4.01668 27.1055 3.51668 26.65C3.01668 26.1944 2.73335 25.6333 2.66668 24.9667L0.366679 3.96666C0.255568 3.07777 0.500012 2.30555 1.10001 1.64999C1.70001 0.994434 2.44446 0.666656 3.33335 0.666656H20.6667C21.5556 0.666656 22.3 0.994434 22.9 1.64999C23.5 2.30555 23.7445 3.07777 23.6333 3.96666L21.3333 24.9667C21.2667 25.6333 20.9833 26.1944 20.4833 26.65C19.9833 27.1055 19.3889 27.3333 18.7 27.3333H5.30001ZM3.86668 11.3333L5.33335 24.6667H18.6667L20.1333 11.3333H3.86668ZM3.53335 8.66666H20.4667L21 3.33332H3.00001L3.53335 8.66666ZM12 20.6667C11.6889 20.6667 11.4222 20.5555 11.2 20.3333C10.9778 20.1111 10.8667 19.8444 10.8667 19.5333C10.8667 19.2 10.9611 18.8167 11.15 18.3833C11.3389 17.95 11.6222 17.4555 12 16.9C12.3778 17.4555 12.6611 17.95 12.85 18.3833C13.0389 18.8167 13.1333 19.2 13.1333 19.5333C13.1333 19.8444 13.0222 20.1111 12.8 20.3333C12.5778 20.5555 12.3111 20.6667 12 20.6667ZM12 23.3333C13.0667 23.3333 13.9667 22.9667 14.7 22.2333C15.4333 21.5 15.8 20.6 15.8 19.5333C15.8 18.4889 15.4945 17.4778 14.8833 16.5C14.2722 15.5222 13.6556 14.6555 13.0333 13.9C12.9 13.7222 12.7389 13.5944 12.55 13.5167C12.3611 13.4389 12.1778 13.4 12 13.4C11.8222 13.4 11.6389 13.4389 11.45 13.5167C11.2611 13.5944 11.1 13.7222 10.9667 13.9C10.3445 14.6555 9.72779 15.5222 9.11668 16.5C8.50557 17.4778 8.20001 18.4889 8.20001 19.5333C8.20001 20.6 8.56668 21.5 9.30001 22.2333C10.0333 22.9667 10.9333 23.3333 12 23.3333Z" fill="#8A8A8A"/>
</svg>
