<svg width="152" height="185" viewBox="0 0 152 185" fill="none" xmlns="http://www.w3.org/2000/svg">
<g id="Logo">
<g id="Mark">
<g id="Subtract">
<path d="M38.8793 70.2018C34.3223 63.1041 31.6794 54.6603 31.6794 45.5992V118.078H38.8793V70.2018Z" fill="#DC625C"/>
<path d="M77.2786 91.1984C102.462 91.1984 122.878 70.783 122.878 45.5992C122.878 20.4155 102.462 0 77.2786 0C52.0949 0 31.6794 20.4155 31.6794 45.5992C31.6794 54.6603 34.3223 63.1041 38.8793 70.2018V45.5992C38.8793 24.3918 56.0713 7.19987 77.2786 7.19987C98.486 7.19987 115.678 24.3918 115.678 45.5992C115.678 66.8066 98.486 83.9985 77.2786 83.9985C74.0501 83.9985 70.6747 83.3089 67.6788 82.5586V90.2384C70.6998 90.8687 74.0705 91.1984 77.2786 91.1984Z" fill="#DC625C"/>
</g>
<g id="Subtract_2">
<path d="M77.2786 79.6786C96.1002 79.6786 111.358 64.4207 111.358 45.5992C111.358 26.7777 96.1002 11.5198 77.2786 11.5198C58.4571 11.5198 43.1992 27.2577 43.1992 46.0792C43.1992 54.2558 46.0788 61.2798 50.8791 67.1524V45.5992C50.8791 31.0191 62.6986 19.1997 77.2786 19.1997C91.8587 19.1997 103.678 31.0191 103.678 45.5992C103.678 60.1793 91.8587 71.9988 77.2786 71.9988C73.9827 71.9988 70.5879 71.1821 67.6788 70.0788V78.2386C70.6528 79.0863 74.0327 79.6786 77.2786 79.6786Z" fill="#DC625C"/>
<path d="M43.1992 118.078H50.8791V67.1524C46.0788 61.2798 43.1992 54.2558 43.1992 46.0792V118.078Z" fill="#DC625C"/>
</g>
<g id="Subtract_3">
<path fill-rule="evenodd" clip-rule="evenodd" d="M98.3983 46.0792C98.3983 58.0083 89.2078 67.1988 77.2786 67.1988C73.8303 67.1988 70.5707 66.716 67.6788 65.2789V56.639C70.1763 59.0183 73.5569 59.999 77.2786 59.999C84.9663 59.999 91.1984 53.2869 91.1984 45.5992C91.1984 37.9115 84.9663 31.6794 77.2786 31.6794C69.591 31.6794 63.3589 37.9115 63.3589 45.5992V62.116C58.6623 58.1538 55.679 52.7049 55.679 46.0792C55.679 34.15 65.3495 24.4796 77.2786 24.4796C89.2078 24.4796 98.3983 34.15 98.3983 46.0792Z" fill="#DC625C"/>
<path d="M55.679 118.078H63.3589V62.116C58.6623 58.1538 55.679 52.7049 55.679 46.0792V118.078Z" fill="#DC625C"/>
</g>
</g>
<g id="Logo_2">
<path id="A" fill-rule="evenodd" clip-rule="evenodd" d="M142.13 174.797C140.648 174.873 138.692 174.834 137.784 174.708C136.875 174.583 135.336 174.074 134.364 173.578C133.392 173.083 132.03 172.003 131.336 171.179C130.299 169.946 130.076 169.199 130.078 166.958C130.079 165.072 130.378 163.745 131.05 162.643C131.689 161.595 132.962 160.609 134.768 159.763C137.278 158.586 139.793 158.019 142.723 158.019C148.41 158.044 148.89 158.524 148.635 156.952C148.495 156.087 148.096 154.787 147.748 154.063C147.4 153.338 146.252 152.241 145.196 151.625C143.46 150.612 142.838 150.525 138.716 150.713C136.208 150.828 133.778 151.079 133.316 151.27C132.644 151.548 132.476 151.372 132.476 150.389C132.476 149.382 132.801 149.066 134.276 148.636C135.266 148.348 137.162 147.988 138.489 147.837C139.817 147.686 142.16 147.824 143.696 148.143C145.68 148.555 147.009 149.192 148.282 150.341C149.301 151.263 150.315 152.767 150.634 153.833C150.95 154.888 151.195 158.724 151.194 162.611C151.192 168.694 151.077 169.704 150.221 171.107C149.621 172.091 148.404 173.074 147.037 173.679C145.82 174.217 143.612 174.72 142.13 174.797ZM140.82 172.586C141.845 172.613 143.532 172.381 144.568 172.07C145.605 171.76 146.98 170.879 147.624 170.113C148.647 168.898 148.796 168.246 148.796 164.978C148.796 162.646 148.913 161.595 148.673 161.355C148.433 161.115 147.861 161.048 147.296 160.935C146.471 160.77 145.793 160.635 142.823 160.635C139.853 160.635 138.747 160.962 137.399 161.363C135.84 161.826 134.498 162.625 133.712 163.56C133.015 164.388 132.476 165.627 132.476 166.4C132.476 167.155 132.682 168.315 132.934 168.978C133.187 169.642 133.948 170.548 134.626 170.993C135.305 171.437 136.556 171.966 137.408 172.169C138.259 172.371 139.795 172.559 140.82 172.586Z" fill="white"/>
<path id="L" fill-rule="evenodd" clip-rule="evenodd" d="M120.841 174.717C120.841 170.929 120.841 174.717 120.841 156.477C120.841 138.238 120.958 144.718 120.958 138.238C121.614 138.238 120.958 138.238 123.358 138.238C123.358 140.638 123.358 148.212 123.358 156.477C123.358 168.066 123.358 172.797 123.358 174.717C122.755 174.717 121.716 174.717 120.841 174.717Z" fill="white"/>
<path id="O" fill-rule="evenodd" clip-rule="evenodd" d="M103.02 174.971C101.074 175.075 98.7759 174.979 97.9141 174.758C97.0524 174.536 95.5374 173.819 94.5476 173.164C93.4995 172.471 92.1592 170.893 91.3378 169.385C90.169 167.24 89.8943 166.099 89.7325 162.717C89.6252 160.473 89.7714 157.77 90.0574 156.71C90.3435 155.65 91.2064 153.791 91.9749 152.579C92.9427 151.053 94.0899 150.022 95.7067 149.227C97.5794 148.305 98.8004 148.077 101.881 148.077C104.962 148.077 106.183 148.305 108.055 149.227C109.672 150.022 110.819 151.053 111.787 152.579C112.556 153.791 113.418 155.65 113.705 156.71C113.991 157.77 114.137 160.487 114.029 162.749C113.863 166.233 113.61 167.257 112.366 169.468C111.38 171.221 110.187 172.521 108.729 173.43C106.986 174.516 105.863 174.819 103.02 174.971ZM101.881 172.755C102.937 172.755 104.635 172.457 105.655 172.094C106.675 171.73 108.102 170.865 108.826 170.171C109.55 169.477 110.438 168.016 110.798 166.923C111.159 165.83 111.454 163.398 111.454 161.517C111.454 159.637 111.159 157.204 110.798 156.111C110.438 155.019 109.55 153.557 108.826 152.863C108.102 152.169 106.675 151.304 105.655 150.941C104.635 150.577 102.937 150.28 101.881 150.28C100.825 150.28 99.1267 150.577 98.1069 150.941C97.0872 151.304 95.6603 152.169 94.936 152.863C94.2117 153.557 93.3181 155.032 92.9502 156.141C92.5822 157.25 92.2812 159.669 92.2812 161.517C92.2812 163.365 92.5822 165.784 92.9502 166.893C93.3181 168.002 94.2117 169.477 94.936 170.171C95.6603 170.865 97.0872 171.73 98.1069 172.094C99.1267 172.457 100.825 172.755 101.881 172.755Z" fill="white"/>
<path id="Y" fill-rule="evenodd" clip-rule="evenodd" d="M69.0015 184.902C68.3415 185.023 67.3156 185.033 66.7216 184.926C66.373 184.863 66.4788 184.797 65.7588 184.797C65.7588 184.557 65.7588 183.974 65.7588 183.597C65.7588 183.167 65.7588 182.877 65.7588 182.397C66.2388 182.397 66.6843 182.615 67.5632 182.615C69.0731 182.615 69.7739 182.309 70.8338 181.186C71.5757 180.4 72.6808 178.646 73.2896 177.289C74.3965 174.822 74.3965 174.822 70.6795 165.289C68.6352 160.047 66.3436 154.083 65.5871 152.037C64.7633 149.809 65.0388 150.717 64.3188 148.317C64.5588 148.317 65.0249 148.317 65.5694 148.317C65.9261 148.317 66.9588 148.317 67.1988 148.317C67.4388 149.277 68.1239 151.453 71.1408 159.357C73.4583 165.429 75.5181 170.397 75.7182 170.397C75.9183 170.397 77.8909 165.431 80.1017 159.361C82.8685 151.764 83.7585 149.517 83.9985 148.317C84.4785 148.321 85.0777 148.322 85.4736 148.321C86.2249 148.319 86.6385 148.317 86.8785 148.317C86.8785 148.797 86.5993 149.054 86.4935 149.397C86.3107 149.991 84.2342 155.661 81.879 161.997C79.5238 168.333 77.0515 174.966 76.3849 176.737C75.7183 178.508 74.7016 180.656 74.1255 181.511C73.5495 182.366 72.4309 183.429 71.6398 183.874C70.8488 184.318 69.6615 184.781 69.0015 184.902Z" fill="white"/>
<path id="A_2" fill-rule="evenodd" clip-rule="evenodd" d="M50.9318 174.797C49.4499 174.873 47.4939 174.834 46.5852 174.708C45.6765 174.583 44.1377 174.074 43.1656 173.578C42.1936 173.083 40.8311 172.003 40.1379 171.179C39.1008 169.946 38.8779 169.199 38.8793 166.958C38.8806 165.072 39.1796 163.745 39.8519 162.643C40.4903 161.595 41.7634 160.609 43.5701 159.763C46.0795 158.586 48.5946 158.019 51.5246 158.019C57.2118 158.044 57.6918 158.524 57.4367 156.952C57.2964 156.087 56.8972 154.787 56.5495 154.063C56.2018 153.338 55.0533 152.241 53.9973 151.625C52.2617 150.612 51.6394 150.525 47.5174 150.713C45.0094 150.828 42.5795 151.079 42.1175 151.27C41.4457 151.548 41.2775 151.372 41.2775 150.389C41.2775 149.382 41.6028 149.066 43.0775 148.636C44.0675 148.348 45.9635 147.988 47.2908 147.837C48.6182 147.686 50.9614 147.824 52.4979 148.143C54.4815 148.555 55.811 149.192 57.0831 150.341C58.103 151.263 59.1165 152.767 59.436 153.833C59.7519 154.888 59.9964 158.724 59.9954 162.611C59.9938 168.694 59.8782 169.704 59.0226 171.107C58.4228 172.091 57.2058 173.074 55.8389 173.679C54.6219 174.217 52.4137 174.72 50.9318 174.797ZM49.6217 172.586C50.647 172.613 52.3338 172.381 53.37 172.07C54.4063 171.76 55.7813 170.879 56.4257 170.113C57.4486 168.898 57.5972 168.246 57.5972 164.978C57.5972 162.646 57.7145 161.595 57.4745 161.355C57.2345 161.115 56.6626 161.048 56.0973 160.935C55.2723 160.77 54.5945 160.635 51.6244 160.635C48.6544 160.635 47.5486 160.962 46.2006 161.363C44.6413 161.826 43.2998 162.625 42.5135 163.56C41.8164 164.388 41.2775 165.627 41.2775 166.4C41.2775 167.155 41.4839 168.315 41.7361 168.978C41.9883 169.642 42.7497 170.548 43.4281 170.993C44.1065 171.437 45.3581 171.966 46.2095 172.169C47.0608 172.371 48.5963 172.559 49.6217 172.586Z" fill="white"/>
<path id="L_2" fill-rule="evenodd" clip-rule="evenodd" d="M28.6823 174.717C28.6823 170.929 28.6823 174.717 28.6823 156.477C28.6823 138.238 28.7995 144.718 28.7995 138.238C29.4557 138.238 28.7995 138.238 31.1994 138.238C31.1994 140.638 31.1994 148.212 31.1994 156.477C31.1994 168.066 31.1994 172.797 31.1994 174.717C30.5967 174.717 29.5573 174.717 28.6823 174.717Z" fill="white"/>
<path id="P" fill-rule="evenodd" clip-rule="evenodd" d="M2.39996 184.797C2.39996 184.797 0.959988 184.797 3.03263e-06 184.797C1.91685e-06 182.637 1.05856e-06 179.037 1.05856e-06 172.557C5.72195e-08 165.837 0 159.117 0 157.197C7.32409e-06 152.877 0.850423 152.349 1.19999 151.677C1.54955 151.006 2.35737 150.368 3.01083 149.757C3.6643 149.147 4.49836 148.697 5.75991 148.317C7.02145 147.938 8.98565 147.837 9.95176 147.837C11.8723 147.837 12.8158 148.166 14.1693 148.568C15.5992 148.993 17.2771 149.946 18.1741 150.843C19.0231 151.692 20.1063 153.265 20.581 154.338C21.0558 155.411 21.8396 158.768 21.8396 160.317C21.8396 161.867 21.8396 164.157 21.5996 166.317C21.177 167.771 20.2909 169.993 19.6797 170.9C19.0685 171.808 17.3793 173.079 16.2231 173.718C14.5874 174.621 13.2045 175.166 10.5598 175.197C8.69031 175.219 6.18865 174.775 4.80268 174.552C2.39996 173.718 2.39996 173.908 2.39996 175.197C2.39996 175.917 2.39996 179.517 2.39996 179.517C2.39996 184.784 2.39996 183.597 2.39996 184.797ZM9.95176 172.46C10.8757 172.484 12.5065 172.449 13.5625 172.076C14.6185 171.703 16.065 170.75 16.7769 169.958C17.4888 169.167 18.3294 167.658 18.6449 166.605C18.9986 165.424 19.1258 163.063 18.9767 160.448C18.8328 157.923 18.4204 155.598 17.9582 154.704C17.5311 153.878 16.6091 152.752 15.9094 152.201C15.2097 151.651 13.7496 150.962 12.6648 150.67C11.5801 150.377 9.95176 150.16 8.63931 150.42C7.51004 150.575 5.94549 151.033 5.16253 151.437C4.37956 151.842 3.4113 152.807 3.01083 153.582C2.44373 154.678 2.28272 156.795 2.28272 163.155C2.28272 171.32 2.28272 171.32 4.08269 171.787C5.07267 172.043 6.42265 172.346 7.08264 172.46C7.74263 172.573 9.02777 172.435 9.95176 172.46Z" fill="white"/>
</g>
</g>
</svg>
