<svg width="26" height="26" viewBox="0 0 26 26" fill="none" xmlns="http://www.w3.org/2000/svg">
<path d="M11.9999 24.6667V14.723C11.6855 14.5299 11.4401 14.288 11.2639 13.9973C11.0879 13.7069 10.9999 13.3745 10.9999 13C10.9999 12.4547 11.1969 11.985 11.5909 11.591C11.9849 11.197 12.4546 11 12.9999 11C13.5453 11 14.0149 11.197 14.4089 11.591C14.8029 11.985 14.9999 12.4547 14.9999 13C14.9999 13.3745 14.9119 13.7103 14.7359 14.0077C14.5597 14.305 14.3144 14.5435 13.9999 14.723V24.6667C13.9999 24.9505 13.9041 25.188 13.7126 25.3793C13.5213 25.5709 13.2837 25.6667 12.9999 25.6667C12.7161 25.6667 12.4786 25.5709 12.2873 25.3793C12.0957 25.188 11.9999 24.9505 11.9999 24.6667ZM4.99725 21.4693C4.79059 21.676 4.54536 21.7751 4.26159 21.7667C3.97781 21.758 3.73936 21.6435 3.54625 21.423C2.54625 20.2879 1.7607 19.0085 1.18959 17.5847C0.618696 16.1607 0.333252 14.6325 0.333252 13C0.333252 11.2496 0.666141 9.6039 1.33192 8.06301C1.9977 6.5219 2.9007 5.18123 4.04092 4.04101C5.18114 2.90079 6.52181 1.99779 8.06292 1.33201C9.60381 0.666233 11.2495 0.333344 12.9999 0.333344C14.7504 0.333344 16.396 0.666233 17.9369 1.33201C19.478 1.99779 20.8187 2.90079 21.9589 4.04101C23.0991 5.18123 24.0021 6.5219 24.6679 8.06301C25.3337 9.6039 25.6666 11.2496 25.6666 13C25.6666 14.624 25.3811 16.1501 24.8103 17.5783C24.2391 19.0063 23.4536 20.2879 22.4536 21.423C22.2605 21.6435 22.0255 21.7615 21.7486 21.777C21.4717 21.7923 21.2298 21.6966 21.0229 21.4897C20.8298 21.2966 20.7397 21.056 20.7526 20.768C20.7653 20.48 20.8682 20.2257 21.0616 20.005C21.8769 19.0632 22.5149 17.9975 22.9756 16.8077C23.4363 15.6179 23.6666 14.3487 23.6666 13C23.6666 10.0222 22.6333 7.50001 20.5666 5.43334C18.4999 3.36668 15.9777 2.33334 12.9999 2.33334C10.0221 2.33334 7.49992 3.36668 5.43325 5.43334C3.36659 7.50001 2.33325 10.0222 2.33325 13C2.33325 14.3487 2.56147 15.6145 3.01792 16.7973C3.47436 17.9802 4.12136 19.0427 4.95892 19.9847C5.15203 20.2051 5.25847 20.456 5.27825 20.7373C5.29781 21.0185 5.20414 21.2625 4.99725 21.4693ZM8.76392 17.7027C8.55725 17.9093 8.31414 18.014 8.03458 18.0167C7.75503 18.0191 7.52559 17.9033 7.34625 17.6693C6.82647 17.0231 6.41658 16.3081 6.11658 15.5243C5.81659 14.7406 5.66658 13.8991 5.66658 13C5.66658 10.9658 6.38025 9.23501 7.80759 7.80768C9.23492 6.38034 10.9657 5.66668 12.9999 5.66668C15.0341 5.66668 16.7649 6.38034 18.1923 7.80768C19.6196 9.23501 20.3333 10.9658 20.3333 13C20.3333 13.8907 20.1833 14.7335 19.8833 15.5283C19.5833 16.323 19.1734 17.0367 18.6536 17.6693C18.4743 17.8898 18.2448 18.0056 17.9653 18.0167C17.6857 18.0278 17.4426 17.9299 17.2359 17.723C17.0426 17.5299 16.9447 17.2958 16.9423 17.0207C16.9396 16.7453 17.0238 16.4906 17.1949 16.2563C17.5436 15.7948 17.8205 15.2906 18.0256 14.7437C18.2307 14.1966 18.3333 13.6153 18.3333 13C18.3333 11.5333 17.811 10.2778 16.7666 9.23334C15.7221 8.1889 14.4666 7.66668 12.9999 7.66668C11.5333 7.66668 10.2777 8.1889 9.23325 9.23334C8.18881 10.2778 7.66658 11.5333 7.66658 13C7.66658 13.6291 7.76914 14.2138 7.97425 14.754C8.17936 15.294 8.45625 15.7948 8.80492 16.2563C8.97603 16.4906 9.06025 16.7419 9.05758 17.0103C9.05514 17.2786 8.95725 17.5093 8.76392 17.7027Z" fill="white"/>
</svg>
